<?xml version="1.0" encoding="utf-8"?>
<!-- Generator: Adobe Illustrator 21.1.0, SVG Export Plug-In . SVG Version: 6.00 Build 0)  -->
<svg version="1.1" id="Layer_1" xmlns="http://www.w3.org/2000/svg" xmlns:xlink="http://www.w3.org/1999/xlink" x="0px" y="0px"
	 viewBox="0 0 437.5 437.5" style="enable-background:new 0 0 437.5 437.5;" xml:space="preserve">
<style type="text/css">
	.st0{fill:#616161;}
	.st1{fill:none;stroke:#878787;stroke-width:12.5;}
</style>
<g>
	<path class="st0" d="M425,311.1c-38.2-20.8-121.1-84.3-160.7-101.8c-16.7-6.2-34.6-20.3-52.3-21.5l0.4-7.3
		c18.1,2.9,34.6,10.1,51.7,17.2c39.2,18.3,129.2,62.1,168,81.2C441.7,282.7,436.5,316.6,425,311.1L425,311.1z"/>
	<path class="st0" d="M207.4,181.1c11.7-17.3,24.6-40.2,36.6-59.1C273.4,83,344.4,35.4,378.9,0.9c13.4,0.6,30.1-1.6,35.5,0.6
		C378.3,34.4,285,86,256.2,125.4c-12.1,20.7-30.4,40.9-41.6,62L207.4,181.1L207.4,181.1z"/>
	<path class="st0" d="M211.5,185.6c-12.8-7.3-28.9-21.1-41.6-32.1C139.8,122.9,31.5,47.6,2.8,15.9c-6.5-7,14.8-19.2,21-11.9
		C51.5,36.5,143.4,119.5,174,149.3c13.2,10.6,25.7,22.7,42.1,28.1L211.5,185.6L211.5,185.6z"/>
	<path class="st0" d="M213.3,184.2c-15.9,6-33.2,8.4-49.8,11.9c-39.2,8.4-118.2,35.8-157.5,44c-7.4,2.1-6.9-6.2-1.4-7
		c39.6-6.4,118.4-33.3,157.6-42.2c15.4-4.1,32.6-6.6,46.6-14.9L213.3,184.2L213.3,184.2z"/>
	<path class="st0" d="M218,182.4c0.2,8.5-1.2,16.7-2.4,25c-8.7,35.6-52.2,162.7-66.3,196.6c-7,54.3-32.1,22.1-18.7-5.7
		c13.6-33.8,71.1-156.1,78.2-191.7c0.6-6.6,1.5-17.2,0.6-22.2L218,182.4L218,182.4z"/>
</g>
<path class="st1" d="M208.8,193.7c5.8-5.6,13.3-3.9,21-3.2c-3.7-6-7.1-22.7-2.3-30.6c-8.9,4.6-27.8,8.3-36.9,6.5
	c2.4,8.4,0.6,14.6-0.3,22.5c4.6,2.2,14.5,22.8,13.8,27c12.2-8.7,61.3-18.8,72.1-11.6c-9.7-21.4-31.8-58.2-27.3-74.2
	c-11.8,10.4-86.3,11.5-95.5,9.2c7.3,8.4-0.8,48-8,56.2c14.5,8,49.8,50.3,46.8,74.1c21.1-11.5,106.1-50.8,121.2-43.9
	c-11.2-34.1-36.5-101.7-26.2-135.4c-36.5,19-158.5,3.9-184.7-0.7C110.2,118,104,194,93,210.1c18.3,18,73.7,94.1,73.7,114.4
	c22.9-9.6,180.1-74.3,196.7-65.7c-15.2-33.6-26.9-199.2-9.9-223.6C327.7,50.5,66.8,36.8,32,30.8C48.4,85,45.6,202.2,22.6,232.2
	c28.8,14.1,124.5,134.7,118.5,158.3c35.3-28.2,259.7-105.2,290.7-84.4"/>
</svg>
