<?xml version="1.0" encoding="utf-8"?>
<!-- Generator: Adobe Illustrator 19.0.0, SVG Export Plug-In . SVG Version: 6.00 Build 0)  -->
<svg version="1.1" id="Layer_1" xmlns="http://www.w3.org/2000/svg" xmlns:xlink="http://www.w3.org/1999/xlink" x="0px" y="0px"
	 viewBox="-158 283 294.1 228" style="enable-background:new -158 283 294.1 228;" xml:space="preserve">
<style type="text/css">
	.st0{fill:#A7A9A7;}
</style>
<path class="st0" d="M85.1,339.3h2.5c0.6,1.9-1.4,1.1-2.5,1.3V339.3z"/>
<path class="st0" d="M-133.7,344.9c-1.4,0.9-3.5,1.1-5.6,1.3C-138.2,344.9-136.1,344.8-133.7,344.9z"/>
<path class="st0" d="M-121.8,346.2c-0.2-1.1,3.5-1.1,2.5,0.6C-120.6,347.1-120.9,346.4-121.8,346.2z"/>
<path class="st0" d="M94.4,346.8c-0.4,1.4-6.6,0.9-8.8,1.3C87.1,344.8,90.5,347.4,94.4,346.8z"/>
<path class="st0" d="M-94.8,348c0.7-1.4,3.9-0.2,5.6-0.6C-89.9,348.8-93.1,347.7-94.8,348z"/>
<path class="st0" d="M-113.6,348.7c-0.1-1.4,2.2-0.3,3.1-0.6C-110.4,349.4-112.7,348.3-113.6,348.7z"/>
<path class="st0" d="M-108.6,348.7c0.3-1.4,3.1-0.3,4.4-0.6C-104.5,349.4-107.3,348.3-108.6,348.7z"/>
<path class="st0" d="M108.9,348c0.7,0.2,0.4,1.2,1.3,1.3C109.8,351,108.1,349.3,108.9,348z"/>
<path class="st0" d="M-99.2,349.9c0.4-1.5,3.2-0.3,2.5,1.3C-98.4,351.6-98,349.9-99.2,349.9z"/>
<path class="st0" d="M80,349.9c0.1-1.4,2.7-0.3,3.8-0.6C83.7,350.7,81.1,349.6,80,349.9z"/>
<path class="st0" d="M91.3,349.3C89.3,351.2,86.6,348.5,91.3,349.3z"/>
<path class="st0" d="M-84.2,349.9C-85.5,351.8-88.2,349.2-84.2,349.9z"/>
<path class="st0" d="M-134.9,351.2c1.3-0.2,2,0.1,1.9,1.3h-1.9V351.2z"/>
<path class="st0" d="M-126.8,351.8C-123.7,351.6-131.8,352.1-126.8,351.8z"/>
<path class="st0" d="M-116.1,353.1c1.5-1.4,5.6-0.2,8.1-0.6C-109.5,353.9-113.6,352.7-116.1,353.1z"/>
<path class="st0" d="M-82.9,354.3c0.7-1.4,3.9-0.2,5.6-0.6C-77.9,355.1-81.2,353.9-82.9,354.3z"/>
<path class="st0" d="M68.8,361.2c-4.4,1.5-11.5,0.2-16.9,0.6C55.9,359.4,63.6,360.9,68.8,361.2z"/>
<path class="st0" d="M46.2,361.8C43.6,363.7,41.8,360.1,46.2,361.8z"/>
<path class="st0" d="M36.2,362.5c0.9-1.4,4.4-0.2,6.3-0.6C41.6,363.3,38.1,362.1,36.2,362.5z"/>
<path class="st0" d="M-40.3,363.7c-1.8,2-5.5,0.2-8.8,0c-6.1-0.4-13.1,0.4-17.5,0C-58.3,361.8-48.1,362.2-40.3,363.7z"/>
<path class="st0" d="M29.9,363.1c-0.1-1.4,2.2-0.3,3.1-0.6C33.1,363.8,30.8,362.7,29.9,363.1z"/>
<path class="st0" d="M-56.6,365.6C-58,367.5-60.6,364.9-56.6,365.6z"/>
<path class="st0" d="M-52.8,366.2c1.3-1.4,5.2-0.2,7.5-0.6C-46.6,367-50.5,365.8-52.8,366.2z"/>
<path class="st0" d="M-114.3,380c-1.2,1.5-4.2,1.3-6.9,1.3C-119.5,380.2-116.5,380.5-114.3,380z"/>
<path class="st0" d="M-26.5,396.9c-2.9-0.1-1.7-4.4,1.3-3.8C-25.1,395-26.7,395.1-26.5,396.9z"/>
<path class="st0" d="M13.6,398.8C15.8,400.4,10.4,400.3,13.6,398.8z"/>
<path class="st0" d="M6.1,445.8c0,1.7,0.2,3.6-0.6,4.4c-1.6,0.1-2-1-2.5-1.9C2.9,446.4,4.6,446.2,6.1,445.8z"/>
<path class="st0" d="M10.5,456.5c1.4-0.3,0.9,1.2,1.9,1.3C12.1,459.3,9.5,458.2,10.5,456.5z"/>
<path class="st0" d="M2.3,459c0.5,2.6-2.3,1.9-1.9,4.4c-0.8-0.6-2.3-0.6-2.5-1.9C-1.7,459.6-0.3,458.6,2.3,459L2.3,459z"/>
<path class="st0" d="M2.3,469c0.9-2,0.6,2.2,0.6,3.1C2.1,474.1,2.3,469.9,2.3,469z"/>
<path class="st0" d="M-73.5,511c-1.1,0.1-1.3-0.8-2.5-0.6C-75.9,508.6-73,508.9-73.5,511z"/>
<path class="st0" d="M-83.5,509.7c1.3-0.2,2,0.1,1.9,1.3h-1.9V509.7z"/>
<path class="st0" d="M63.1,287.9c-1-0.4-1,3,0,2.5c-2.5,0.8-5.6,1.1-7.5,2.5c-0.2,1.1,0.5,1.2,1.3,1.3c-1.3,1.6-3.5,2.4-6.3,2.5
	c-0.3,2,2.2,1.7,0.6,3.1c-1.8-0.3-4.9,1.3-3.1,2.5c-4.9,1.9-8.1,8.6-13.2,8.1c3.5-6.5,9.8-10.3,13.2-16.9c3.9,0.6,4.3-2.4,5-5
	c1.3-0.3,1.2,0.9,1.3,1.9c2.2,0.1,2-2.2,3.1-3.1c2.8-0.6,7.1-7.4,9.4-2.5c-2.9-0.6-3.6,1-5.6,1.3c0.6,0.8,1.7,1.3,2.5,1.9
	C63.6,288.6,63.1,288.2,63.1,287.9L63.1,287.9z"/>
<path class="st0" d="M-79.8,295.4c1.3,1.3,1.3-0.3,1.9-1.3c0.9,0.5,1.3,1.6,1.3,3.1c-2.4-0.3-5-0.5-6.9-1.3c0.9-0.7,1.5-1.8,3.1-1.9
	c-2.8-1.4-7.1-1.3-11.3-1.3c0.7-1.6,2.8-1.8,5-1.9c0.6-2.3-2.7-0.6-3.1-1.9c0.1-1.2,2.1-0.4,2.5-1.3c-1.4-1.1-3.7-1.3-6.3-1.3
	c1.9-3.1,11.5,1.5,13.8,4.4C-79,292.1-78.1,294.7-79.8,295.4z"/>
<path class="st0" d="M28,356.8c7.9,0.5,21.6-1.6,30.1-4.4c0.8-0.2,0.6-1.2,0-1.3c2.2,0,5.4-0.8,8.1-1.9c-0.2-0.9-1.6-0.5-2.5-0.6
	c8.4-0.8,12.6-5.8,20.1-7.5c-4,4.6-12.1,5-15.7,10c-6.4,0.9-10.8,3.8-16.3,5.6c2,1.2,4.9,1.3,8.1,1.3c3.8,0.5-10.2,1.8-10.7-0.6
	c-4.2,2.3-10.1-0.7-13.8,2.5c-2-0.4-8.8-2.2-8.8,1.3c-1.8-1.1-8.4-2.6-9.4-0.6c2.7,1.7,7.6,1.2,11.9,1.3c-0.2,1.8-2.9,1.5-4.4,1.9
	c-2.8,0.6-7.6,1.2-10.7,2.5c7.3,1.1,15-0.2,20.7-1.9c17.3-0.4,34.6-0.3,51.4,3.8c1-0.2-0.5-1.1,0.6-1.3c5.1,3,11.5,4.7,15.7,8.8
	c6,1.4,11.3-2.8,15.7-5c-1.6,2.2-6.5,6.5-12.5,6.3c-2.3,5-5.8,8.8-10.7,11.3c-10.7-0.3-20.9,1.7-30.1,0.6c-1.4-0.2-2.5-1.1-3.8-1.3
	c-1.1-0.1-1.4,0.9-2.5,0.6c-2.7-0.6-5.1-2.7-7.5-3.1c-1.3-0.2-2.6,0.6-3.8,0.6c-6.7,0-11-3.8-15-8.1c-5.6-1.4-12.2-4.8-18.2-3.8
	c1.2,3.6-1.7,5.5-2.5,8.8c5.4,3.8,10.5-5.2,16.3-3.1c5,9.4,12.1,16.7,21.3,21.9c-0.8,1.1-1.9,1.8-2.5,3.1c7.5,0.7,16.7,9.8,28.8,10
	c-0.7,1.7-1.2,4.8,0.6,5.6c-1.9,0.2-6.3-2.5-8.1-4.4c-0.7,0.1-0.5,1.1-0.6,1.9c-6.8-3.6-14.2-6.7-19.4-11.9
	c-0.4,2.9-2.9,0.1-2.5,3.1c-5.6-6.3-9-14.8-15-20.7c-0.5-2.4-1.5-4.4-3.8-5c-5.8,3.1-9.2,8.8-18.2,8.8c0.1,0.7,1.1,0.5,1.9,0.6
	c-0.7,1.8-1.9,2.1-3.8,1.3c0.7,2,0.3,1.7-0.6,3.1c3.1,1.2,1.7-2.1,3.8-1.9c-0.2,3,4.2,2.7,1.3,5c0.9,1.5,3.3,0.7,1.9,3.1
	c12.3,1.2,22.4,4.7,28.8,11.9c1.9,10.2,0.5,20,3.8,28.8c-0.3,2.2-2.7,1.2-1.3,3.8c2.4,0.1,0.2-0.5,0.6-1.9c4,5.5-6.7,5.9-5,13.2
	c-2.2-0.7-0.6-2-0.6-3.1c0-11.5,0.4-26.5,1.3-37.6c-6.8-2.7-15.9-6.1-24.4-5c0.7,7.9,1.9,12.1,1.9,20.7c-0.3,1.4,1.2,0.9,1.3,1.9
	c-2.9,2.7-1.5,7.2-3.8,9.4c1.1,0.4,0,3,1.3,3.1c-0.3,1.7-2,0-1.3-1.3c-2,0.9-2.7,3.6-3.8,5.6c-1.6,3.2-3.6,6-3.8,11.3
	c-0.9-3.1-7.9,4.1-7.5,7.5c-3.5-3.4-8.4,10.1-11.3,11.3c0.2-7.7-4.5-10.5-7.5-15c-0.9-0.1-1.8-0.1-1.9,0.6
	c-1.1-2.7-6.4-10.4-7.5-11.9c-0.2-1-1.9-5-3.1-4.4c-0.4-1.6,0-4.9-3.8-5.6c1.5-2.7,0.6-6.6-0.6-6.9c-1.2-5.6-0.2-18.6,1.3-26.3
	c-7.9,1.3-12.1,6.3-21.9,5.6c-1.3,0.2-1.2,1.7-2.5,1.9c0.4,14.6,2.9,27.2,3.1,42c-1.6-3.7-2.8-4.4-4.4-7.5c-2.7,2.7-1.4,4.4-3.1,6.9
	c1.1-1.6-3.6,0.1-2.5,2.5c0.3,1.6,1.8-0.6,1.3-1.9c0.4,7.1-5.6,13.2-6.3,21.3c-1.7,0.5-1.3-1.2-2.5-1.3c-1.2,1.3-0.4,4.6-0.6,6.9
	c-2,0.3-1.4-1.9-3.8-1.3c2.4,4.7-1.3,5.1,0,9.4c0.6,2-1.6,1.3-1.9,2.5c0.7,3.6,1.3,4.9,0.6,8.8c-2.1-1.6-3-2.5-4.4-1.9
	c-0.9-3.9,3.2-7.2,0-9.4c-0.6-2,3.4-4.3,0-5c0.6-2.6,2.3-2.7,3.8-3.1c0.6-1.9-1.4-1.1-2.5-1.3c0.2-2.5,2.7-2.7,3.8-4.4
	c-0.3-0.8-0.8-1.3-1.9-1.3c7.2-7.7,13-16.7,16.9-27.6c0.6-0.5,1.4-0.7,2.5-0.6c-0.2-1.7-2.6-1.1-3.1-2.5c3.1-8.9,1.5-22.3,1.9-33.8
	c7.6-7.6,19.9-10.6,30.7-15c-0.9-1.6-3.8-0.1-5,0c0.2-2.1,3.6-1,5.6-1.3c1.3-0.7,0.8-3.4,3.8-2.5c-0.3-0.8-0.8-1.3-1.9-1.3
	c1.7-1.9,3.6-0.7,6.3-0.6c0.7-0.6,0-1.4,1.3-2.5c-2-2-1.9,1.3-3.8,1.3c-0.1-1.6,1-1.9,1.3-3.1c-10-0.5-16.6-4.3-22.6-8.8
	c-9,7.3-13.2,19.4-20.1,28.8c-1.1-2-0.8-5.4-2.5-6.9c9-7.3,13.5-19.1,22.6-26.3c5,0.9,8.8,5.5,13.8,4.4c-0.5-4.3-2.4-7.6-1.9-11.3
	c-1.7,0.6-4.2,1-1.9-0.6c-1.7,0-3.9-0.6-3.1,1.9c-6.1,1.9-11.4,2.4-16.9,5c-5.4,2.5-9.2,7.2-15,8.1c-6.5,1-11.4,2.1-16.9,5.6
	c-11.9-1.3-22.2-1.1-33.8-3.1c-3-2.7-3.5-5.7-3.8-10c-3.4,0.5-5.1-0.8-8.1-0.6c-6.9-5-14.3-9.5-21.9-13.8c-10-13.6,14-24.4,27-23.8
	c0.9,0.3-0.1,0.5,0,1.3c2.1,0,3.1-1.1,5.6-0.6c-4.1,2.4-12.4,0.5-17.5,1.9c-0.9,0.5-2.4,0.5-1.9,2.5c-5.5,0-8.2,2.7-10.7,5.6
	c3.7-2,9.5-1.8,11.9-5c2.4-1.7,15.5,1.6,15.7-1.3c0.1-1.5-2.4-0.2-3.1-0.6c-0.9-1.6,9,0.5,6.3-3.1c1.6-0.5,3.4-0.8,5.6-0.6
	c-1.7,2-9.2,3.7-6.9,5.6c-0.4,1.5-3.9-0.1-4.4,1.3c1.5,2.5,3.1-0.2,5.6,0c2.2,2.3,6.8,1.9,11.9,1.9c3.7,0,12.7,0.4,5,0.6
	c-3.1,0.1-8.9-0.1-13.2,0c-2-1.3-6.8,0.1-8.8-1.3c-2.4,0.5-3,3.4-3.1,4.4c-2.9-0.8,2-3.6,1.9-5.6c-5.9-0.9-11.4,2.1-16.9,2.5
	c0.9,1.4,4.4,0.2,6.3,0.6c0,3.3-1.6,5.1-2.5,7.5c2.1,1,7.3-0.2,8.8-1.9c3.8,1.6,7.3-1.1,10.7-1.9c-1.3-1.5-2.4-2.5-1.9-3.8
	c1.2,1.6,2.3,0.6,3.1,3.8c12.5,5.2,29,5.5,45.1,5.6c-0.9,3.1-2.3,0.7-4.4,0.6c-7.7-0.4-19.9,0.2-28.2-1.9c-0.8,0.1-0.8,1.9,0,1.9
	c-0.2,1.3-2.2-0.7-1.9-1.9c-6.6-1.6-12.9-4.6-19.4-1.3c0.3,5.8,5.1,7,8.1,10c1.7-1,5.6,0.2,5.6-2.5c10.2-2.5,20.6-0.2,32-1.9
	c-0.7,2.9-3.1,1-5,1.3c-7,0.9-15.5,3.8-22.6,5c1.7,3.9,7.8,0.7,11.3,0.6c-3.5,2-9.3,2.4-13.8,4.4c-2,0.9-3.9,2.9-5.6,3.8
	c-1.8,0.8-3.9,0.7-4.4,3.1c-0.3,1.7,0.6,3.3,1.3,5c4.6-0.4,7.4-2.7,11.3-3.8c1.6-0.2-0.9-1.1,0-2.5c2-0.5,1.3,1.6,2.5,1.9
	c2.3-0.2,4.3-0.7,5.6-1.9c22.6-1.6,37.4-11,61.4-11.3c-11.1,2.7-31.3,3.4-40.7,8.8c-0.6,0.3-0.4,0.5,0,0.6
	c-13.3,2.6-27.3,4.4-38.9,8.8c1.7,2.5,5.2,0.9,8.1,1.3c3.6,0.4,7.9,2.7,11.3,0.6c1.6-0.1,1.9,1,3.1,1.3c7.1-3.2,13.8-6.7,19.4-11.3
	c0,2.6-4.1,4-6.9,5.6c-2.9,1.7-7,2.8-8.1,5.6c1.6,1,2.7,0.1,5.6,0.6c5.8-4.6,12.3-8.6,19.4-11.9c-0.3-0.8-0.8-1.3-1.9-1.3
	c3.9-1.4,7.9-2.5,12.5-3.1c-11,3.5-18.3,10.6-28.2,15c5.3-0.4,8.2-2.9,15-3.8c8-0.9,14.9-8.5,23.2-11.3c3.1-1,6-0.9,9.4-1.9
	c-5-2.4-15.9,2.8-18.2,1.3c6.4-0.9,11.2-3.4,18.8-3.1c1.5,0-0.2-1.7-1.3-1.3c0.7-1.6,3.4-1.2,5.6-1.3c-2.4-1.5-3.8-0.2-5-0.6
	c-0.6-0.2,2.6-1,5.6-0.6c-5-2.3-10,0.7-15,1.3c-9.8,1.1-19.8-1.3-29.5,0c-4.5,0.6-9.5,2.6-13.8,3.8c-2.3,0.6-4.7,1.1-6.9,1.9
	c-4,1.4-8.4,4.4-14.4,5c9.2-4.6,19.4-8.1,31.3-10c-0.1-0.7-1.1-0.5-1.9-0.6c3.2-2,7.7-1.2,11.9-1.3c8.4-0.1,17.7,0.2,24.4-0.6
	c4.9-0.6,8.1-3.2,13.2-1.9c0.1-2.6-3.9-0.1-1.9-3.1c-6.4-1.6-14-0.7-20.1-1.3c0.9-1.4,4.4-0.2,6.3-0.6c-9.1-1.6-22,0.7-28.8-3.1
	c-1.5,0.4-2.9,0.9-5,0.6c0.2-0.9,1.6-0.5,2.5-0.6c-4.4-1.6-9.3-4.9-13.8-4.4c2.7-4.5,5.3,1.7,11.9,0c-0.3,0.5-0.7,1-0.6,1.9h5.6
	c-0.3,0.5-0.7,1-0.6,1.9c12.4,2,25.6,1.5,40.7,3.8c-11.7-4.1-26.2-5.5-37.6-10c-2.2-0.5-2.4,0.9-4.4,0.6c-1.1-1.1-2.8-3.8-6.3-2.5
	c-0.1-3.4-7.2-1.7-11.9-2.5c-2.7-0.5-4.4-1.7-6.3-1.9c-2.1,0.4,2.8,2.1,0.6,2.5c-1.9-0.4-1.7-2.9-3.1-3.8c-1.3-0.4-4.4,1-3.8-1.3
	c4.2,1.1,8.3,1.1,12.5,1.9c6.9,1.2,13.6,3.5,20.1,5c1.2,0.3,2.6-0.3,3.8,0c12,3.5,26.9,8.2,38.9,9.4c-3.7-8.4-11.8-12.4-13.8-22.6
	c-2.3-2.5-4.6-5-6.9-7.5c0.3-2-1.1-2.2-0.6-4.4c-2.8-3.5-4.7-7.9-6.9-11.9c0.6,0.5,1.4,0.7,2.5,0.6c-3.2-4.7-10.5-5.3-13.8-10
	c3.9,1,3.3-2.6,5.6-3.1c1,2.2,1.6,3,0,5c4.8,0.8,9.4,4.7,8.8,8.8c2.8,0.7,3.1-1.1,5-1.3c0.6,9,4.4,14.8,7.5,21.3
	c0.8,0.9,3,0.4,3.8,1.3c3,6.2,7.9,10.5,13.2,14.4c1.5,0.2-0.3-2.9,1.9-1.9c-0.8-6.3-3.6-15.6,0-20.1c0.4-0.5,2.8-0.3,1.9-1.3
	c1.2-0.8,5.4,0.1,6.9-1.9c-1.9-1.7-0.5-3.6-1.3-6.3c-1.7-5.8-10.9-19.1-18.8-20.7c-5.3-1.1-9.1,0.7-11.9,3.1
	c-0.7,2.6-0.1,6.6-3.8,6.3c0-8.4,2.8-14.9,11.3-13.8c11.1,1.4,20.9,15.8,24.4,23.8c0.9,1.8,3.4,2,3.1,5c0.1,2.6-1,0-1.9,0v2.5
	c2.1,0.4,2.3-1.1,2.5-2.5c1.6,1.9,4,3.1,8.1,2.5c1.4,0.1,0.3-2.2,0.6-3.1c5.9-2.2,6.8-11.7,11.9-17.5c1.5-1.8,5-4.3,7.5-6.3
	c3.9-3,6.9-6.7,12.5-6.3c5.2,0.4,9.9,5.4,8.1,11.9c-3-1.6-3-6.2-6.3-7.5c-5.6-0.4-9.2,1.5-13.2,4.4C5.1,304.4-0.9,312-3.3,321.7
	c-0.9-1.7-1.6-0.7-3.1,0c0.8,0.9,2.5,0.8,2.5,2.5c2.6-0.7,5.2,0.2,6.9,0c0.3,0,0.8-1.2,0.6-1.3c0.4,0,2.1,3.5,1.9,0.6
	c0.9,0.2,0.5,1.6,0.6,2.5c4.9,0,5,14.1,1.3,17.5c2,3.3,5.9,1.4,9.4,1.9c0.1-1.4-0.5-2-1.9-1.9c2.2-4.7,5.6-8.2,10.7-10
	c4-6.7,6.4-17.6,6.3-26.3c2.3-0.2,1.4,2.7,2.5,3.8c0.4,1.2,3.7-0.4,3.1,1.9c-0.2,2.3-1.9-0.4-3.1,0c-1.3,2.7-1.8,6.1-2.5,9.4
	c1.6-0.1,0.9-5.7,2.5-3.8c0.1,0.7,0.6,0.3,0.6,0c-0.7,5.6-5,13-8.8,17.5c-1,9.2-7.1,13.4-13.2,17.5c0.8,1.1,3.6,0.1,2.5,3.1
	c23.4-2.8,46.2-15.8,72.7-20.7c5.5-1,14.2-0.8,21.9,0c4.1,0.4,7.9,2.2,11.9,3.8c0.9,0.4,2.2-0.3,3.1,0c4.2,1.3,10.4,10,10.7,11.3
	c1.7,8-4.8,8.4-6.9,13.8c-1.6-1.2,1.6-3,1.9-4.4c-3.5-4.4-13.6-2.2-17.5-6.3h-3.8c-2.1-1.5,4.5,0.3,4.4-1.3
	c4.1,3.6,12.8,2.6,16.9,6.3c6.5-2.4,4.5-7.3,1.3-11.3c-0.2-0.3-0.3-1.6-0.6-1.9c-1.4-1.3-5-0.6-8.1-0.6c0-0.6,0.8-0.5,1.3-0.6
	c-6.2-1.9-16.2-1.8-22.6-1.3c-2.2,1.1-1.6,5.1-3.1,6.9c2.3,2,7.5,1.3,9.4,3.8c-4.9-0.6-8.5-2.4-13.8-2.5c1.4-0.9,4-1.2,0-1.3
	c0.5-1.6,4.6,0.5,4.4-1.9c0.6-1.9-1.4-1.1-2.5-1.3c4.4-0.6,6.8-9.1-0.6-8.1c4.3-0.3,11.7,3.7,20.1,3.8c1.3,0,3.1-0.7,4.4-0.6
	c2.6,0.2,5.1,1.8,6.9,1.3c0.6-3-3.2-2.4-5-3.1c-12.7-5.1-32.8-3.7-46.4,0c-8.9,2.4-19.7,7.1-28.8,10.7c-1.1,0.4-2.8,0.2-3.8,0.6
	C39.5,353.2,33.2,355.4,28,356.8L28,356.8z M16.1,372.5c4.9,1.5,8.4,0.9,12.5,2.5c5,1.9,8,7,12.5,8.8c3.1,1.2,6,0.1,9.4,0.6
	c6.4,1,14.5,6.2,23.2,2.5c5.3,3.2,13.5-0.4,20.7,0.6c3.6-2.8,8.8-4.1,8.8-10.7c-2.2,0.1-3.6-2-5.6-3.1c-4.1-2.4-7-2.6-12.5-3.8
	c-2-0.4-3.7-1.6-6.3-1.9c-9.7-1.2-18.3-3.8-25.7-1.3c8,1.4,16.8,2,23.2,5c-14.6-2.2-31.6-8.9-47.6-3.8c8.8,1,17.4,3.1,26.3,4.4
	c9.1,1.3,18.4,4.7,26.9,6.3c4,0.8,8.4-0.3,11.3,3.1c-12.4-3.3-21.8-5.7-36.4-6.9c2.6,4.7,12.1,5.9,13.2,10
	c-6.8-3.6-11.1-9.8-21.9-9.4c-0.2,1.9,4.1,2.5,2.5,3.8c-9.8-5.3-23.8-6.2-34.5-10.7c13.8,0.7,25.8,9.6,40.7,5
	c-16-1.2-28.1-8.3-43.9-4.4C17,368.8,14.1,371.3,16.1,372.5L16.1,372.5z M-7.7,458.3c-0.2,2.6,0.6,6-1.3,6.9
	c-1.3-2.5-1.3-6.2-3.8-7.5c-0.3,1.1-0.8-0.1-1.9,0c0.5,3.2-0.6,4.8-2.5,5.6c-0.8-1-1.7-2.1-1.3-4.4c1.8,0.1,3.4,0.1,3.1-1.9
	c-2.5,1-7-0.8-11.3,0c1.8,0.5,3,1.5,2.5,4.4c2.5,0.5,4.6,4.9,7.5,6.9c7,1.2,11.3-0.9,16.9-0.6c3.6-3.6,7.5-10,8.8-13.8
	C3.1,458-0.4,456.3-7.7,458.3L-7.7,458.3z M-58.5,319.2c-0.5-1.6-0.6-3.6-1.9-4.4C-60.9,317-57.4,320.6-58.5,319.2z M-55.3,321.1
	c-1.8-1.1-0.6-5.3-3.1-5.6C-57.7,317.2-56.8,322.1-55.3,321.1z M-53.5,326.7C-54,330.5-50.6,327.1-53.5,326.7z M29.9,329.2
	C31.7,325.6,28.3,327.6,29.9,329.2z M-17.7,330.5c1.5-0.2,2.9-0.4,2.5-2.5h-2.5V330.5z M-20.2,330.5c-2.9,3.3-9.1,5.1-8.8,8.1
	c1.2-2-0.2,3.9,1.9,3.1c-0.1-6.6,8.7-4.3,8.8-10.7C-19.2,331.1-19.2,330.3-20.2,330.5z M-5.8,333c5.2,1.7,8.9,4.9,11.9,8.8
	c0.2-1.9,1.9-2.2,1.3-5c-3.6-3.1-8.7-4.7-13.8-6.3C-6.5,331.6-6.3,332.4-5.8,333L-5.8,333z M18.6,343.7c2-2,0.2,1.9,2.5,1.3
	c-0.2-4.1,3-5,3.8-8.1c-3.4-1.9-3.4,4.4-6.3,5C20.7,342,16.6,345.3,18.6,343.7z M-42.2,339.9c-1.5-1-1.5-3.5-4.4-3.1
	c-0.2,1.4,0.2,2.4,1.3,2.5C-44.7,335.2-42.8,342.1-42.2,339.9z M4.8,344.3c-3,0.1-4.8-1.1-6.3-2.5c-7.2-1.1-17.8-1.9-20.7,1.9
	c-1.8,0.5-1.6-0.9-3.1-0.6c-2.8,4-8.3,8.2-6.3,15c11.2-0.1,9.2-13.4,16.9-15.7c12.8-3.7,14.4,14.6,25.7,13.8
	C10.9,350.4,6.5,348.7,4.8,344.3z M17.4,348c0.2-1.3,2.8-0.1,2.5-1.9C18.2,345.6,16.1,347.7,17.4,348z M-9,355.6
	c-0.1-1,0.3-5.7-0.6-3.8c0.4,3.4-0.8,8.3,0.6,10.7c0.8-0.1,1.9-2.2,3.1,0c0.9-0.4,0.1-2.4,1.3-2.5c0.1,0.7-0.1,1.8,0.6,1.9
	c2.3-2.5,2.4-7.5,0-10c-0.1,1.6-0.4,3-1.3,3.8c-0.4-1.5,0.8-4.5-0.6-5C-5.9,353.2-8.7,353.1-9,355.6z M-10.8,358.1
	c0.1-0.8,0.1-4.5-0.6-2.5C-11.6,356.4-11.6,360.1-10.8,358.1z M-12.7,359.3c0.1-0.4-0.2-3.6-0.6-1.9
	C-13.9,359.8-13,360.6-12.7,359.3z M18.6,358.1c2.5-0.4,6.7,0.8,8.1-0.6C24.8,356.3,18.5,357.4,18.6,358.1z M14.2,361.8
	c-0.8,0-0.8,1.7,0,1.9c1.6-1.5,1.6-2.8,1.9-4.4H13C12.3,361.3,14,360.8,14.2,361.8z M8,365c4.7,1.4,3.6-5.9,0-5
	C7.4,362.5,7.9,362.1,8,365z M-30.9,367.5c1.2,0.1,1.4-0.7,2.5-0.6c-0.9-2.7-1.5-4,0-6.3C-32.2,360-31.8,365.1-30.9,367.5z
	 M-20.9,366.8c0-2.1,0.2-4.4-1.3-5C-21.9,363.7-22.8,366.7-20.9,366.8z M21.1,363.1c-0.8,0-0.9-0.8-1.9-0.6
	C18.3,364,21.4,364.3,21.1,363.1z M-16.5,365c0-0.4,0.1-0.7,0.6-0.6c-0.1-0.8-0.2-1.5-1.3-1.3C-17,363.8-17.2,364.9-16.5,365z
	 M-24,366.2c1.8,0.9,1.8-2.8,0-1.9V366.2z M-29,372.5c3.4,5.6,7.9,1,13.8,0.6c-0.1-1.2,0.7-1.4,0.6-2.5c-3.2-1.6-10.1,0.5-12.5-1.9
	C-28.5,370.6-27.5,371.2-29,372.5z M-7.1,370.6v1.9c5.8,0,8.4,3.3,14.4,3.1c-0.9-3.7,2.1,0.5,1.9-2.5c-1,0-2-1.1-2.5-3.1
	C3,371-2.9,368.9-7.1,370.6z M-9.6,381.3c3.3,0.8,4.8-4,6.3-1.3c0.1-3.9-4.1-3.5-4.4-6.9c-1.1,0.4,0,3-1.3,3.1
	c0.1-0.8,0.1-4.5-0.6-2.5C-10.6,376.6-9.6,378-9.6,381.3z M6.1,380.6c-1.5,3.3-7.3,2.3-9.4,5c4.9-0.2,9.4-0.7,10.7-4.4
	C7.2,380.8,6.8,380.5,6.1,380.6z M-24.6,383.8c2.1,1.6,8.4,3.4,10,0c-2.2-0.9-5.4,0.4-8.1-1.9C-21.8,384.1-24.9,382.3-24.6,383.8z
	 M-42.8,384.4c1.9,1.5-2.9-2.9-3.1-1.3C-44.7,383.4-44.4,384.5-42.8,384.4z M-20.2,398.2c-0.1-0.4,4.4,0.3,1.9-1.9
	C-18.4,397.2-22.3,397.3-20.2,398.2z M-25.9,398.8C-23.8,400.7-24,396.5-25.9,398.8z M-59.7,401.3c0.1-0.7,1.1-1.4,0-1.9
	C-59.8,400.2-60.8,400.9-59.7,401.3z M42.4,401.3c0.9,0.7,1.5,0.7,1.9-0.6c-0.9,0-1.4-0.3-1.9-0.6V401.3z M-61.6,404.4
	c0-1.1-0.5-1.6-1.3-1.9C-62.9,403.6-62.4,404.2-61.6,404.4z M-5.2,405.7c0.2-1.4-0.1-2.4-1.3-2.5c-0.2,4.2-1,0.6-3.1,1.9
	c-0.1,4.2,0,7.2,1.3,2.5c0.3,4.7,1.3,1.5,5.6,2.5c-0.2-2.9,0.7-0.9,2.5-1.9c0.1,0.5,0,1.2,0.6,1.3v-4.4c-1.7,0-1.4-2-3.1-1.9
	c-0.1,0.9,0.2,2.3-0.6,2.5c0.1-1.6-0.3-2.6-1.3-3.1C-4.9,403.5-3.8,405.8-5.2,405.7z M-66,406.3c0.7,0.1,0.7,1,0.6,1.9
	c1.9,0.6,2.7-3.1,1.9-3.1c-1.5,2.3,0.9-3.6-0.6-1.3C-64.3,405.1-65.4,405.5-66,406.3z M-11.5,407.6c1-0.9,0.5-2.6-0.6-3.1
	C-11.8,405.4-12.8,407.7-11.5,407.6z M3.6,409.5c0.9-0.8,1.2-4.4-0.6-4.4c-0.1,0.7,0.1,1.8-0.6,1.9c0.1-2.1-2.7,0.7-0.6,0.6
	c0-0.4,0.1-0.7,0.6-0.6C3.2,407.3,2.4,409.4,3.6,409.5z M5.5,410.1c0.9-0.8,1-3.1-0.6-3.1C5.2,407.9,4.1,410.2,5.5,410.1z
	 M-10.8,410.1c0.2-0.9-0.4-2.4-0.6-1.3C-11.6,409.7-11.1,411.3-10.8,410.1z M-3.3,420.1c0.1-1.6-0.3-2.6-1.3-3.1
	c1.1,2.9-2,3-3.1,1.9c0.3,4,0.5,5.3,1.3,7.5c-1-3.1,1.8,2.7,1.9,3.1c0.4-1.1-0.8-3.7,0.6-3.8v3.1c2.6,1,0.1-3.2,1.9-3.1v2.5
	c2.5,1,0.2-2.7,1.9-2.5c0.8,8.1-0.3-4.3,1.9-1.9v-6.3c-2.3,0.4-1.3-2.4-4.4-2.5C-4,415.7-1.4,419-3.3,420.1L-3.3,420.1z M2.9,418.9
	c0.2-0.9-0.4-2.4-0.6-1.3C2.1,418.5,2.7,420.1,2.9,418.9z M13,418.9c0.2-0.9-0.4-2.4-0.6-1.3C12.2,418.5,12.7,420.1,13,418.9z
	 M-14.6,423.3c0.2-0.9-0.4-2.4-0.6-1.3C-15.4,422.8-14.8,424.4-14.6,423.3z M14.2,422c1.5,0.1,0.1,2.1-0.6,1.9
	c0.2-0.8-0.1-3.9-0.6-1.9c-0.7,2.6,1.3,4.2,0,5.6C15.4,426.6,16.2,421.3,14.2,422z M3.6,427.6c-0.1-1,0.3-5.7-0.6-3.8
	C3,424.9,2.6,429.6,3.6,427.6z M11.7,423.3C10.1,428.2,14,428.3,11.7,423.3z M-12.1,425.8c0-5.8,0.8,7,0.6,1.9c0-0.1-0.6-5-1.3-2.5
	C-12.7,424.9-12.1,425.4-12.1,425.8z M-10.2,426.4c0.6,4.8,1.7-0.3-0.6-1.9C-11.1,425.4-10.3,425.8-10.2,426.4z M1.7,428.3
	c1-1,0.3-2.9-0.6-3.8C1.4,425.6,0.3,428.2,1.7,428.3z M5.5,427.6c0.1-0.8,0.1-4.5-0.6-2.5C4.7,426,4.7,429.7,5.5,427.6z M6.7,427.6
	h1.9c-0.1-0.7,0.1-1.8-0.6-1.9C7.9,426.7,6.4,426.2,6.7,427.6z M-14,428.3c0.2-0.9-0.4-2.4-0.6-1.3C-14.8,427.9-14.2,429.5-14,428.3
	z M-19.6,430.8c0.2-1.4-0.2-2.4-1.3-2.5C-20.7,429.4-21.5,431.4-19.6,430.8z M-6.5,435.2c-2.2-2.1,2.8-0.4,2.5-2.5
	c-2.2-4.7-9.7-3-12.5,0c2.5,2.9,1.7,8.6,3.1,1.9c1.4-0.1,0.3,2.2,0.6,3.1c2.9,0.7-1.1-2.6,1.3-3.1C-9.1,433.6-6.5,435.8-6.5,435.2z
	 M1.1,435.8c-1,0-0.4-1.7-1.3-1.9c0.2,3.4-1.1,0.7-1.9,0c0.1,2.6-0.3,1.5-1.3,0.6v5.6c1.7,1.6,2.7,0.3,4.4,1.3
	c0.4-1.3-0.8-4.1,0.6-4.4c0.4,1.3-1,4.4,1.3,3.8c-1.3-2,0.4-7.1-1.9-8.1C0.2,434.2,2.9,435.3,1.1,435.8z M11.1,435.2
	c0.1-0.4-0.2-3.6-0.6-1.9C9.9,435.7,10.8,436.4,11.1,435.2z M-19.6,438.3c-0.1-1.6-0.4-3-1.3-3.8C-20.9,436.2-21.2,438.2-19.6,438.3
	z M-18.4,436.4c0.2-0.9-0.4-2.4-0.6-1.3C-19.2,436-18.6,437.6-18.4,436.4z M-15.9,436.4c-1,0-0.4-1.7-1.3-1.9
	C-17.6,435.8-16.1,438-15.9,436.4z M-4.6,438.3c0.1-0.8,0.1-4.5-0.6-2.5C-5.3,436.6-5.3,440.3-4.6,438.3z M4.8,441.4
	c-0.1-2-0.3-3.9-1.3-5C3.8,438.3,2.9,441.3,4.8,441.4z M16.1,438.9c0-0.4,0.1-0.7,0.6-0.6c-0.1-0.8-0.2-1.5-1.3-1.3
	C15.6,437.8,15.4,438.8,16.1,438.9z M9.2,440.2c0.1-0.9,1-1.1,1.3-1.9C9.2,437.7,7.7,439.9,9.2,440.2z M-9,443.9
	c0.1-0.5,0.5-0.7,1.3-0.6c0.4-1.7-1.3-1.2-1.9-1.9C-9.5,442.4-9.8,443.7-9,443.9z M-5.2,445.2c-2.2,2.4-2.7,6.5-3.1,10.7
	c6.2,0.5,14.3-2.4,20.1-4.4c0.7-3.2,0.8-6.2,3.8-9.4C9.4,441.6,2,444.7-5.2,445.2z M-30.3,446.4c-0.1-1.1,0.6-3.1-1.3-2.5
	C-31.7,445.4-31.4,446.3-30.3,446.4z M-11.5,447.1c-3.3-2-5.7-3.1-8.8-1.9c-0.8,0.3-3.5-0.9-2.5,0.6c-0.1,2.4,3.9,0.7,4.4,2.5
	c0.2,2.8-2.9,2.2-4.4,3.1c0.4-2.9-1.4-3.6-1.3-6.3c-1.8,0.6-2.2,0.8-3.1-0.6c-0.4,1.1,0.8,3.7-0.6,3.8c-0.1-1.6-0.1-3.2-1.9-3.1
	c0.8,1.9,0.6,4.8,0.6,7.5c2-0.3,1.8,1.6,2.5,2.5c5.7-0.3,9.8,1.1,15.7,0.6C-11.7,452.6-10.2,450.3-11.5,447.1L-11.5,447.1z
	 M41.8,447.1c0.1-0.4-0.2-3.6-0.6-1.9C40.6,447.6,41.5,448.3,41.8,447.1z M-72.3,479.7c0.3-0.9,0.9-1.6,1.3-2.5
	C-72.6,476.5-73.8,479.3-72.3,479.7z M-71,481.5c0.1-0.7,1.1-1.4,0-1.9C-71.1,480.4-72.1,481.1-71,481.5z M-79.2,494.1
	c-0.3,4.9,1.1,2.1,0.6-1.3c-0.7,0.1-1.8-0.1-1.9,0.6C-79.9,493.6-79.2,493.5-79.2,494.1z M-79.8,503.5c0.1-0.8,0.1-4.5-0.6-2.5
	C-80.5,501.8-80.5,505.5-79.8,503.5z M-108,369.4c2.3-2.5,8.9-0.7,10.7-3.8c-10-0.4-17.5,1.7-23.8,5c1.6,0.8,3-1.4,3.1,0
	c-6.4,1.3-13.9,1.5-16.3,6.9c7.6,4.8,15.6-2.1,21.9-4.4c-2.2-0.5,0.4-2.3-1.9-3.1C-112.1,369.8-110.7,369-108,369.4z M-129.9,361.8
	c-3.3-6-15.6,3.5-18.8,0c2.1,0,2.4-1.8,5-1.3c2.2-3.6,1.6-5.6,2.5-8.1c-10.3-2.1-19.8,3.9-13.2,11.3c2.2-0.7,3.8-1.9,5,0.6
	c-0.5,1-3.1-0.1-2.5,1.9c5.2,3.4,9.8,7.3,16.3,9.4c3.2-2.9,7.7-4.4,11.9-6.3C-125.4,366.8-128.5,364.4-129.9,361.8z M-14,470.9
	c1.6,2.1,3.7,3.8,4.4,6.9c0.6-4,4.9-4.3,6.3-7.5c-1.5-0.6-2.7-0.7-5,0c-0.3,0.9,0.7,3.2-0.6,3.1c-0.9-0.5-0.9-2-1.3-3.1
	C-12.4,470.8-13.4,468.6-14,470.9L-14,470.9z"/>
<path class="st0" d="M-67.9,408.2c-2.7,5.5-8.7,7.6-13.8,10.7c0.1-2.2,1.9-2.7,3.8-3.1c-2-2.2-3.4,1.6-5.6,1.3
	c-0.5,1.9,1.7,1.2,1.3,3.1c-1.5,0.3-2.3,1.5-3.1,2.5c-1-0.1,1.5-6.1-1.3-6.3C-81.1,413-74,411.1-67.9,408.2z M-77.3,414.5
	c1.1,0,1.6-0.5,1.9-1.3C-76.5,413.2-77,413.7-77.3,414.5z"/>
<path class="st0" d="M96.3,419.5c0.9,2.3,1.5,2.4-0.6,3.8c1.2,1.5,2.9,2.5,4.4,3.8c-2.1,0.3-3.8-2.3-6.3-3.8
	c-2.3-1.4-6.1-1.6-6.9-4.4C90.3,416.3,105.8,420.5,96.3,419.5z"/>
<path class="st0" d="M-103,347.4c0.5-1.4,1.9,1.4,3.1,1.3c-0.2,1.6-1.1-0.9-2.5,0C-102.2,347.9-102.5,347.6-103,347.4z"/>
<path class="st0" d="M118.3,348.7c0.6-2.1,1.2,0.7,1.9,0.6C119.8,351.1,119.2,348.3,118.3,348.7z"/>
<path class="st0" d="M93.2,351.8c-0.3,2.9-7.6,4.1-8.8,8.1c-0.4,1.1,1.5,2,3.1,2.5c3.3,1,11.5,1.2,6.9,1.3
	c-4.8,0.4-7.2-1.5-11.3-1.9c-0.7,0.7-3.6,3.6,0,3.1c-1,1.7-3.8,0.1-4.4-0.6c1,0,2.3-1.3,1.9-4.4c3.6,0.5,3.8-2.5,5.6-3.8
	c-3.9-0.8-14.7,3-22.6,1.9c-2.7-0.4-0.8-0.7,3.8-0.6C76.3,355.9,86.3,356.4,93.2,351.8L93.2,351.8z"/>
<path class="st0" d="M-74.1,363.7c0.2,1.5-2.9-0.3-1.9,1.9c-2,0.9-3.8-1.6-4.4,0C-81.6,364.2-76.6,363.6-74.1,363.7z"/>
<path class="st0" d="M113.3,371.2c-3.7,1.4-6.4-3.7-11.3-3.1c-0.6-1.1-1.4-1.9-2.5-2.5c-4.5-1.4-0.9-0.7,2.5-0.6
	C104.7,368.1,109.5,369.1,113.3,371.2z"/>
<path class="st0" d="M127,365c0.2,2.1-4,5.2-7.5,5.6C121.5,368.2,125.3,367.7,127,365z"/>
<path class="st0" d="M80.7,373.1c1.6-1.4,2.7,0.8,4.4,1.3c5.2,1.6,12.9,2.2,15,5C93.8,377.1,87,375.4,80.7,373.1z"/>
<path class="st0" d="M-99.2,427.6c-1.8-0.5,0.8-1.6,0-3.1c-2.8,0.1-4.2,1.6-5.6,3.1c-0.7-0.1-0.5-1.1-0.6-1.9
	c-3.9,0.7-5.8,3.4-7.5,6.3c-1.4-0.9,1.5-2.6,1.9-3.8c-0.6-1.6-2.4,0.9-4.4,0c0.2-0.4,1.6-2.4,0-2.5c0.8-3.6,9.1,0.4,9.4-3.8
	c2.3,0.2,5.5-0.5,6.9,0.6c1.9-0.5-1.5-0.9-0.6-2.5c5.8,0.3,8.6-2.3,13.8-2.5C-88.6,424.1-96.5,421.5-99.2,427.6L-99.2,427.6z
	 M-89.8,420.1c-1.1,0-1.6,0.5-1.9,1.3C-90.6,421.4-90.1,420.9-89.8,420.1z M-103,423.3c-0.3,0.4-2.5,1.9-0.6,2.5
	C-103.3,425.4-101.1,423.9-103,423.3z"/>
<path class="st0" d="M-39.7,422C-38.1,419-35.8,421.3-39.7,422z"/>
<path class="st0" d="M-75.4,295.4c1.6,1.3,2.5,3.4,3.1,5.6c-2.5,1.2-4.2-1.4-6.9-1.9C-77.5,298.3-75.8,297.5-75.4,295.4z"/>
<path class="st0" d="M86.3,422.6c-3.5-2.6-6.1-2.2-10.7-3.8v-3.1c4.7-1.1,8,1.9,13.2,0C87.8,417.8,85.5,418.7,86.3,422.6L86.3,422.6
	z M78.8,418.9c1.6,0.1,2,1.2,2.5-0.6C80.5,417.4,79.4,417.9,78.8,418.9z"/>
<path class="st0" d="M44.3,451.5c6.1,6.9,9.7,16.2,16.3,22.6c-2.7,3.2,4.2,5.7,4.4,10c-0.5-0.3-1-0.7-1.9-0.6c0.6,2.1,1.5,4,2.5,5.6
	c-2,4.6,4.1,10.9,0.6,17.5c-1.9-2.4-1.8-2.9-4.4-4.4c1.1-2.2,0.3-6.4,3.1-6.9c-0.6-1.8-2.7,0.2-3.8,0c1.1-6.3-0.9-6.7-0.6-12.5
	c-1.1-0.1-1.3,0.8-2.5,0.6c0.4-3.3-1.1-4.7-0.6-8.1c-2.3,0.6-2.8,3-3.1,5.6c-0.5-6.1-6-13.8-3.8-16.9
	C47.3,463.4,44.7,454.8,44.3,451.5z M53.1,469C53.8,472.9,56.1,470.6,53.1,469z M60,480.3c0-1.1-0.5-1.6-1.3-1.9
	C58.7,479.5,59.2,480,60,480.3z M63.1,485.3c-0.8,0-0.6-1.1-1.3-1.3C61.1,485.3,62.8,487,63.1,485.3z"/>
</svg>
