<?xml version="1.0" encoding="utf-8"?>
<!-- Generator: Adobe Illustrator 19.0.0, SVG Export Plug-In . SVG Version: 6.00 Build 0)  -->
<svg version="1.1" id="Layer_1" xmlns="http://www.w3.org/2000/svg" xmlns:xlink="http://www.w3.org/1999/xlink" x="0px" y="0px"
	 viewBox="0 0 612 792" style="enable-background:new 0 0 612 792;" xml:space="preserve">
<style type="text/css">
	.st0{fill:#C7C7C7;}
</style>
<path class="st0" d="M167.5,515.1c0.1-2.1,0.2-4,0.3-6c0.6-12.4,1.4-24.8,1.7-37.2c0.4-15.9,0.5-31.8,0.5-47.7
	c0-10.9-0.6-21.7-2.2-32.5c-0.6-3.9-1.4-7.7-3.2-11.2c-4.7-9.8-15.4-14.6-25.3-11.4c-2.9,0.9-5.3,2.5-7.3,4.9
	c-2.2,2.8-5.2,4.2-8.5,5.3c-6.6,2.2-13.3,2.6-20,0.9c-9.5-2.4-16-8.4-19.4-17.5c-3.5-9.5-4.1-19.3-1.6-29.2
	c2.2-8.5,7.3-15,15.2-18.9c10.4-5.2,21.3-5.8,32.5-2.5c2.4,0.7,4.6,2,6.5,3.7c3.5,3.1,7.7,4.5,12.3,4.8c4.9,0.4,9.6-0.4,14-2.5
	c4.7-2.3,7.6-5.8,8.1-11.3c0.7-7.6,0.7-15.1,0.1-22.6c-1.1-13.3-3.4-26.4-6.4-39.5c0-0.1,0-0.2,0-0.5c1.5,0.2,3,0.5,4.4,0.7
	c16.5,2.5,33,5.1,49.5,7.3c16.7,2.2,33.5,3.8,50.3,3.8c7.5,0,15-0.1,22.4-2.1c5.2-1.4,10-3.6,13.7-7.8c4.7-5.4,4.9-12.8,0.2-17.7
	c-0.8-0.8-1.7-1.6-2.7-2.2c-5-2.7-7.6-7.2-8.8-12.5c-2.2-9.6,1.6-18.3,10.4-23.8c5.5-3.4,11.6-5.2,17.9-6.1
	c7.3-1.1,14.7-1.4,22.1-0.7c8.3,0.9,16.2,3,23,8.4c9.2,7.3,12.7,20.3,8.6,31.1c-1.1,2.8-2.7,5.1-5.1,7c-5,4.1-6.7,9.4-5.4,15.6
	c1.3,6.2,4.8,10.7,11.1,12.5c2.7,0.7,5.6,1,8.4,1c7.4,0.1,14.9,0.2,22.3-0.1c12.4-0.5,24.6-2,36.9-3.7c3.6-0.5,7.3-1.1,10.9-1.7
	c0.3,0,0.5-0.1,0.9-0.1c0.4,3,0.9,5.9,1.2,8.8c1.2,11.4,2.5,22.7,3.5,34.1c1.1,13,1.8,26.1,0.9,39.2c-0.3,4-0.9,7.9-1.5,11.8
	c-0.4,3.1-2.2,5.5-4.7,7.2c-7.8,5.5-21.7,5.4-28.6-4.4c-0.6-0.9-1.3-1.9-1.7-2.9c-1.3-3.1-3.5-5.3-6.3-7c-4-2.5-8.3-4-12.9-5
	c-10.2-2.2-20.4-2.1-30.4,1.3c-12.7,4.2-21.7,12.7-26.3,25.3c-4.9,13.4-6,27.3-1.4,40.9c5.9,17.9,18.7,28.3,37.5,30.4
	c13.5,1.5,25.3-3,34.7-13c2-2.1,4.6-3.4,7.2-4.6c5.3-2.4,10.9-3.9,16.8-3.8c8.5,0.2,13.9,4.8,15.2,13.2c1,6.3,0.9,12.6,0.4,18.9
	c-0.8,9.8-1.7,19.7-3,29.5c-1.6,11.5-3.7,23-5.5,34.5c-0.1,0.4-0.2,0.9-0.2,1.1c-2.8,0-5.4,0.1-8.1,0c-15-0.4-30.1-1-45.1-1.3
	c-11.9-0.2-23.8-0.2-35.6-0.1c-4.8,0-9.6,0.4-14.4,0.8c-3.5,0.3-6.7,1.8-9.2,4.4c-3.7,3.7-4.3,8.7-1.6,13.2c1.6,2.8,4.1,4.7,6.7,6.4
	c5.6,3.7,9,8.9,9.7,15.6c0.6,5.2-0.6,10-2.9,14.6c-4.2,8.3-10.9,14-19.2,17.9c-10.1,4.8-20.8,6.1-31.9,5.3
	c-6.6-0.5-12.9-2.2-18.7-5.5c-8.2-4.8-13.6-11.6-15.3-21.1c-0.6-3.4-0.5-6.8,0.5-10.2c1.3-4.5,3.9-7.9,8.1-10
	c4.7-2.4,8.5-5.9,11.1-10.6c1.6-2.9,2.6-5.9,2.5-9.3c-0.1-5-2.5-8.5-7.1-10.6c-2.5-1.1-5.2-1.6-7.9-1.5c-8.9,0.1-17.8,0.1-26.7,0.5
	c-8.9,0.4-17.9,1.1-26.8,1.9c-10.1,0.9-20.3,2-30.4,3c-6.7,0.7-13.3,1.6-19.9,2.3C168.3,515,168,515,167.5,515.1z"/>
</svg>
