<?xml version="1.0" encoding="UTF-8"?>
<svg viewBox="0 0 437.5 437.5" xmlns="http://www.w3.org/2000/svg">
 <g fill="#3f3f3f">
  <path d="m425.05 311.07c-38.179-20.823-121.13-84.34-160.72-101.82-16.731-6.1878-34.556-20.308-52.262-21.504l0.3972-7.2846c18.138 2.9347 34.555 10.121 51.653 17.215 39.174 18.306 129.18 62.064 168.03 81.169 9.5091 3.9031 4.3275 37.713-7.0934 32.223z"/>
  <path d="m207.45 181.07c11.716-17.258 24.579-40.179 36.606-59.06 29.371-38.967 100.32-86.647 134.88-121.09 13.368 0.64537 30.056-1.6285 35.527 0.59814-36.17 32.895-129.42 84.436-158.28 123.89-12.11 20.709-30.411 40.932-41.566 62.046l-7.1725-6.3782z"/>
  <path d="m211.47 185.55c-12.784-7.2548-28.94-21.115-41.613-32.14-30.028-30.474-138.32-105.81-167.07-137.49-6.5421-7.0464 14.807-19.249 20.998-11.918 27.692 32.526 119.57 115.53 150.24 145.27 13.194 10.573 25.686 22.71 42.055 28.073l-4.6138 8.206z"/>
  <path d="m213.27 184.19c-15.948 6.0208-33.236 8.3955-49.845 11.894-39.226 8.4002-118.22 35.81-157.48 44.013-7.4162 2.1183-6.9132-6.1998-1.3928-6.9722 39.599-6.3556 118.45-33.323 157.55-42.217 15.427-4.1308 32.602-6.6435 46.556-14.923l4.6138 8.206z"/>
  <path d="m218.04 182.42c0.2451 8.4749-1.1532 16.685-2.4497 25.045-8.727 35.576-52.173 162.73-66.254 196.64-7.0139 54.27-32.107 22.121-18.71-5.7076 13.605-33.793 71.135-156.08 78.207-191.72 0.5923-6.6373 1.4785-17.171 0.5813-22.157l8.6259-2.1042z"/>
 </g>
 <path d="m208.82 193.71c5.8111-5.6269 13.279-3.8862 21.016-3.1828-3.7022-6.0111-7.141-22.692-2.3162-30.572-8.8525 4.5544-27.801 8.2846-36.874 6.5292 2.3661 8.4405 0.5827 14.6-0.2841 22.473 4.6043 2.1528 14.537 22.757 13.834 26.977 12.228-8.7112 61.336-18.8 72.065-11.595-9.6633-21.394-31.838-58.244-27.27-74.217-11.844 10.387-86.331 11.545-95.482 9.2146 7.2619 8.3625-0.8447 47.958-8.0138 56.199 14.466 7.9932 49.757 50.344 46.773 74.125 21.138-11.532 106.13-50.815 121.25-43.859-11.241-34.077-36.457-101.7-26.204-135.41-36.499 19.006-158.46 3.9143-184.68-0.66193 7.5957 28.25 1.4008 104.31-9.6266 120.34 18.317 18.011 73.672 94.09 73.672 114.35 22.879-9.5852 180.09-74.319 196.74-65.672-15.177-33.629-26.852-199.23-9.9058-223.62-25.828 15.404-286.7 1.6688-321.52-4.3142 16.413 54.198 13.558 171.37-9.406 201.4 28.762 14.117 124.54 134.71 118.54 158.28 35.278-28.158 259.68-105.16 290.71-84.402" fill="none" stroke="#000" stroke-width="12.5"/>
</svg>
