<?xml version="1.0" encoding="utf-8"?>
<!-- Generator: Adobe Illustrator 19.0.0, SVG Export Plug-In . SVG Version: 6.00 Build 0)  -->
<svg version="1.1" id="Layer_1" xmlns="http://www.w3.org/2000/svg" xmlns:xlink="http://www.w3.org/1999/xlink" x="0px" y="0px"
	 viewBox="0 0 792 612" style="enable-background:new 0 0 792 612;" xml:space="preserve">
<style type="text/css">
	.st0{fill:none;stroke:#D74226;stroke-miterlimit:10;}
</style>
<circle id="XMLID_14_" class="st0" cx="218.6" cy="262.8" r="44"/>
<circle id="XMLID_15_" class="st0" cx="218.6" cy="262.8" r="61.5"/>
<circle id="XMLID_16_" class="st0" cx="218.6" cy="262.8" r="72.5"/>
<circle id="XMLID_17_" class="st0" cx="218.6" cy="262.8" r="86"/>
<circle id="XMLID_18_" class="st0" cx="218.6" cy="262.8" r="95.5"/>
<path id="XMLID_19_" class="st0" d="M309.1,365.3h-181c-6.6,0-12-5.4-12-12v-181c0-6.6,5.4-12,12-12h181c6.6,0,12,5.4,12,12v181
	C321.1,359.9,315.7,365.3,309.1,365.3z"/>
<path id="XMLID_20_" class="st0" d="M290.1,346.3h-143c-6.6,0-12-5.4-12-12v-143c0-6.6,5.4-12,12-12h143c6.6,0,12,5.4,12,12v143
	C302.1,340.9,296.7,346.3,290.1,346.3z"/>
<path id="XMLID_21_" class="st0" d="M267.1,323.3h-97c-6.6,0-12-5.4-12-12v-97c0-6.6,5.4-12,12-12h97c6.6,0,12,5.4,12,12v97
	C279.1,317.9,273.7,323.3,267.1,323.3z"/>
<path id="XMLID_22_" class="st0" d="M241.5,297.7h-45.8c-6.6,0-12-5.4-12-12V240c0-6.6,5.4-12,12-12h45.8c6.6,0,12,5.4,12,12v45.8
	C253.5,292.3,248.1,297.7,241.5,297.7z"/>
</svg>
