<?xml version="1.0" encoding="utf-8"?>
<!-- Generator: Adobe Illustrator 19.0.0, SVG Export Plug-In . SVG Version: 6.00 Build 0)  -->
<svg version="1.1" id="Layer_1" xmlns="http://www.w3.org/2000/svg" xmlns:xlink="http://www.w3.org/1999/xlink" x="0px" y="0px"
	 viewBox="0 0 612 792" style="enable-background:new 0 0 612 792;" xml:space="preserve">
<style type="text/css">
	.st0{fill:none;stroke:#8C1F1B;stroke-miterlimit:10;}
</style>
<circle id="XMLID_32_" class="st0" cx="306.1" cy="395.8" r="44"/>
<circle id="XMLID_31_" class="st0" cx="306.1" cy="395.8" r="61.5"/>
<circle id="XMLID_30_" class="st0" cx="306.1" cy="395.8" r="72.5"/>
<circle id="XMLID_29_" class="st0" cx="306.1" cy="395.8" r="86"/>
<circle id="XMLID_28_" class="st0" cx="306.1" cy="395.8" r="95.5"/>
<path id="XMLID_27_" class="st0" d="M396.6,498.3h-181c-6.6,0-12-5.4-12-12v-181c0-6.6,5.4-12,12-12h181c6.6,0,12,5.4,12,12v181
	C408.6,492.9,403.2,498.3,396.6,498.3z"/>
<path id="XMLID_26_" class="st0" d="M377.6,479.3h-143c-6.6,0-12-5.4-12-12v-143c0-6.6,5.4-12,12-12h143c6.6,0,12,5.4,12,12v143
	C389.6,473.9,384.2,479.3,377.6,479.3z"/>
<path id="XMLID_25_" class="st0" d="M354.6,456.3h-97c-6.6,0-12-5.4-12-12v-97c0-6.6,5.4-12,12-12h97c6.6,0,12,5.4,12,12v97
	C366.6,450.9,361.2,456.3,354.6,456.3z"/>
<path id="XMLID_24_" class="st0" d="M329,430.7h-45.8c-6.6,0-12-5.4-12-12V373c0-6.6,5.4-12,12-12H329c6.6,0,12,5.4,12,12v45.8
	C341,425.3,335.6,430.7,329,430.7z"/>
</svg>
